<svg t="1675011593245" class="icon" viewBox="0 0 1024 1024" version="1.1"
    xmlns="http://www.w3.org/2000/svg" p-id="12200" width="200" height="200">
    <path
        d="M777.2 883.1v-274c-22.6-8.1-46.9-12.8-72.3-12.8-118.2 0-214 95.8-214 214 0 25.6 4.7 50 13 72.8h273.3z"
        fill="#FF4C4D" p-id="12201"></path>
    <path
        d="M716.7 928.9H307.3c-50 0-90.7-40.7-90.7-90.7V242.3c0-50 40.7-90.7 90.7-90.7h409.4c50 0 90.7 40.7 90.7 90.7v595.9c0 50.1-40.7 90.7-90.7 90.7zM307.3 212.1c-16.7 0-30.2 13.6-30.2 30.2v595.9c0 16.7 13.6 30.2 30.2 30.2h409.4c16.7 0 30.2-13.6 30.2-30.2V242.3c0-16.7-13.6-30.2-30.2-30.2H307.3z"
        p-id="12202"></path>
    <path d="M336.3 313.5h260.8V374H336.3zM336.3 449.9H490v60.5H336.3z" p-id="12203"></path>
</svg>